<?xml version="1.0" encoding="UTF-8" standalone="no"?>
<!-- Uploaded to: SVG Repo, www.svgrepo.com, Generator: SVG Repo Mixer Tools -->

<svg
   fill="#000000"
   height="800px"
   width="800px"
   version="1.1"
   id="Layer_1"
   viewBox="0 0 511.901 511.901"
   xml:space="preserve"
   sodipodi:docname="battery-.svg"
   inkscape:version="1.3.2 (091e20e, 2023-11-25, custom)"
   xmlns:inkscape="http://www.inkscape.org/namespaces/inkscape"
   xmlns:sodipodi="http://sodipodi.sourceforge.net/DTD/sodipodi-0.dtd"
   xmlns="http://www.w3.org/2000/svg"
   xmlns:svg="http://www.w3.org/2000/svg"><defs
   id="defs2" /><sodipodi:namedview
   id="namedview2"
   pagecolor="#ffffff"
   bordercolor="#000000"
   borderopacity="0.25"
   inkscape:showpageshadow="2"
   inkscape:pageopacity="0.0"
   inkscape:pagecheckerboard="0"
   inkscape:deskcolor="#d1d1d1"
   inkscape:zoom="0.98375"
   inkscape:cx="399.49174"
   inkscape:cy="400"
   inkscape:window-width="1920"
   inkscape:window-height="1001"
   inkscape:window-x="-9"
   inkscape:window-y="-9"
   inkscape:window-maximized="1"
   inkscape:current-layer="Layer_1" />
<g
   id="g2"
   style="fill:#d40000">
	<g
   id="g1"
   style="fill:#d40000">
		<path
   d="M490.7,383.95v-213.3c0-11.8-9.5-21.3-21.3-21.3H448v-42.7c0-11.8-9.5-21.3-21.3-21.3H384v-42.7    c0-11.8-9.5-21.3-21.3-21.3H149.3c-11.8,0-21.3,9.6-21.3,21.3v42.7H85.3c-11.8,0-21.3,9.6-21.3,21.3v42.7H42.7    c-11.8,0-21.3,9.6-21.3,21.3v213.3c-11.9,0-21.4,9.6-21.4,21.3v64c0,11.8,9.5,21.3,21.3,21.3h469.3c11.8,0,21.3-9.6,21.3-21.3v-64    C512,393.55,502.5,383.95,490.7,383.95z M362.7,127.95h42.7v21.3h-42.7V127.95z M362.7,213.25c11.8,0,21.3,9.6,21.3,21.3v21.4    h21.3c11.8,0,21.3,9.6,21.3,21.3c0,11.7-9.5,21.3-21.3,21.3H384v21.4c0,11.8-9.5,21.3-21.3,21.3s-21.3-9.6-21.3-21.3v-21.3H320    c-11.8,0-21.3-9.6-21.3-21.3c0-11.7,9.5-21.4,21.3-21.4h21.3v-21.3C341.3,222.85,350.9,213.25,362.7,213.25z M170.7,63.95h170.7    v21.3c-11.8,0-21.3,9.6-21.3,21.3v42.7H192v-42.7c0-11.8-9.5-21.3-21.3-21.3V63.95z M106.7,127.95h42.7v21.3h-42.7V127.95z     M106.7,255.95H192c11.8,0,21.3,9.6,21.3,21.3c0,11.7-9.5,21.3-21.3,21.3h-85.3c-11.8,0-21.3-9.6-21.3-21.3    C85.4,265.55,94.9,255.95,106.7,255.95z M469.4,447.95h-0.1H42.7v-21.3h426.7V447.95z"
   id="path1"
   style="fill:#d40000" />
	</g>
</g>
</svg>
