<?xml version="1.0" encoding="UTF-8" standalone="no"?>
<!-- Uploaded to: SVG Repo, www.svgrepo.com, Generator: SVG Repo Mixer Tools -->

<svg
   fill="#000000"
   height="800px"
   width="800px"
   version="1.1"
   id="Capa_1"
   viewBox="0 0 217.499 217.499"
   xml:space="preserve"
   sodipodi:docname="bluetooth-svgrepo-com.svg"
   inkscape:version="1.3.2 (091e20e, 2023-11-25, custom)"
   xmlns:inkscape="http://www.inkscape.org/namespaces/inkscape"
   xmlns:sodipodi="http://sodipodi.sourceforge.net/DTD/sodipodi-0.dtd"
   xmlns="http://www.w3.org/2000/svg"
   xmlns:svg="http://www.w3.org/2000/svg"><defs
   id="defs1" /><sodipodi:namedview
   id="namedview1"
   pagecolor="#ffffff"
   bordercolor="#000000"
   borderopacity="0.25"
   inkscape:showpageshadow="2"
   inkscape:pageopacity="0.0"
   inkscape:pagecheckerboard="0"
   inkscape:deskcolor="#d1d1d1"
   inkscape:zoom="1.02625"
   inkscape:cx="400.48721"
   inkscape:cy="400"
   inkscape:window-width="1920"
   inkscape:window-height="1017"
   inkscape:window-x="-8"
   inkscape:window-y="-8"
   inkscape:window-maximized="1"
   inkscape:current-layer="Capa_1" />
<g
   id="g1"
>
	<path
   d="M123.264,108.749l45.597-44.488c1.736-1.693,2.715-4.016,2.715-6.441s-0.979-4.748-2.715-6.441l-50.038-48.82   c-2.591-2.528-6.444-3.255-9.78-1.853c-3.336,1.406-5.505,4.674-5.505,8.294v80.504l-42.331-41.3   c-3.558-3.471-9.255-3.402-12.727,0.156c-3.471,3.558-3.401,9.256,0.157,12.727l48.851,47.663l-48.851,47.663   c-3.558,3.471-3.628,9.169-0.157,12.727s9.17,3.628,12.727,0.156l42.331-41.3v80.504c0,3.62,2.169,6.888,5.505,8.294   c1.128,0.476,2.315,0.706,3.493,0.706c2.305,0,4.572-0.886,6.287-2.559l50.038-48.82c1.736-1.693,2.715-4.016,2.715-6.441   s-0.979-4.748-2.715-6.441L123.264,108.749z M121.539,30.354l28.15,27.465l-28.15,27.465V30.354z M121.539,187.143v-54.93   l28.15,27.465L121.539,187.143z"
   id="path1"
/>
</g>
</svg>
