<?xml version="1.0" encoding="UTF-8" standalone="no"?>
<!-- Uploaded to: SVG Repo, www.svgrepo.com, Generator: SVG Repo Mixer Tools -->

<svg
   height="800"
   width="800"
   version="1.1"
   id="Capa_1"
   viewBox="0 0 234.409 234.409"
   xml:space="preserve"
   xmlns="http://www.w3.org/2000/svg"
   xmlns:svg="http://www.w3.org/2000/svg"><defs
   id="defs4" />
<g
   id="g4"
 >
	<path
   d="m 117.204,30.677 c -47.711,0 -86.527,38.816 -86.527,86.528 0,47.711 38.816,86.526 86.527,86.526 47.711,0 86.527,-38.815 86.527,-86.526 0.001,-47.711 -38.816,-86.528 -86.527,-86.528 z m 0,158.055 c -39.44,0 -71.527,-32.086 -71.527,-71.526 0,-39.441 32.087,-71.528 71.527,-71.528 39.44,0 71.527,32.087 71.527,71.528 0.001,39.439 -32.086,71.526 -71.527,71.526 z"
   id="path1"
/>
	<path
   d="m 44.896,44.897 c 2.929,-2.929 2.929,-7.678 0,-10.607 -2.93,-2.929 -7.678,-2.929 -10.607,0 -45.718,45.719 -45.718,120.111 0,165.831 1.465,1.465 3.384,2.197 5.304,2.197 1.919,0 3.839,-0.732 5.303,-2.197 2.93,-2.929 2.93,-7.677 10e-4,-10.606 C 5.026,149.643 5.026,84.768 44.896,44.897 Z"
   id="path2"
/>
	<path
   d="m 200.119,34.29 c -2.93,-2.929 -7.678,-2.929 -10.607,0 -2.929,2.929 -2.929,7.678 0,10.607 39.872,39.871 39.872,104.746 0,144.618 -2.929,2.929 -2.929,7.678 0,10.606 1.465,1.464 3.385,2.197 5.304,2.197 1.919,0 3.839,-0.732 5.304,-2.197 C 245.839,154.4 245.839,80.009 200.119,34.29 Z"
   id="path3"
/>
	<path
   d="m 117.204,140.207 c 4.143,0 7.5,-3.358 7.5,-7.5 v -63.88 c 0,-4.142 -3.357,-7.5 -7.5,-7.5 -4.143,0 -7.5,3.358 -7.5,7.5 v 63.88 c 0,4.142 3.358,7.5 7.5,7.5 z"
   id="path4"
/>
	<circle
   cx="117.204"
   cy="156.254"
   r="9.3290005"
   id="circle4"
/>
</g>
</svg>
