<?xml version="1.0" encoding="UTF-8" standalone="no"?>
<!-- Uploaded to: SVG Repo, www.svgrepo.com, Generator: SVG Repo Mixer Tools -->

<svg
   fill="#000000"
   height="800px"
   width="800px"
   version="1.1"
   id="Layer_1"
   viewBox="0 0 512.007 512.007"
   xml:space="preserve"
   sodipodi:docname="car-lights2.svg"
   inkscape:version="1.3.2 (091e20e, 2023-11-25, custom)"
   xmlns:inkscape="http://www.inkscape.org/namespaces/inkscape"
   xmlns:sodipodi="http://sodipodi.sourceforge.net/DTD/sodipodi-0.dtd"
   xmlns="http://www.w3.org/2000/svg"
   xmlns:svg="http://www.w3.org/2000/svg"><defs
   id="defs6" /><sodipodi:namedview
   id="namedview6"
   pagecolor="#ffffff"
   bordercolor="#000000"
   borderopacity="0.25"
   inkscape:showpageshadow="2"
   inkscape:pageopacity="0.0"
   inkscape:pagecheckerboard="0"
   inkscape:deskcolor="#d1d1d1"
   inkscape:zoom="1.02625"
   inkscape:cx="400.48721"
   inkscape:cy="400"
   inkscape:window-width="1920"
   inkscape:window-height="1017"
   inkscape:window-x="-8"
   inkscape:window-y="-8"
   inkscape:window-maximized="1"
   inkscape:current-layer="Layer_1" />
<g
   id="g6"
 >
	<g
   id="g5"
>
		<g
   id="g4"
>
			<path
   d="M256.026,76.778h-1.058c-82.884,0-160.742,28.314-208.418,75.853C16.102,183.001,0,218.798,0,256.166     c0,98.33,114.842,178.654,256.009,179.063h0.017c3.755,0,7.279-3.123,8.363-6.716c34.526-113.178,34.449-232.721-0.23-345.702     C263.057,79.236,259.763,76.786,256.026,76.778z"
   id="path1"
 />
			<path
   d="M506.701,324.532l-187.733-76.8c-4.326-1.758-9.353,0.307-11.136,4.668c-1.784,4.361,0.307,9.344,4.668,11.136     l187.733,76.8c1.058,0.427,2.15,0.631,3.234,0.631c3.362,0,6.554-2.005,7.902-5.308     C513.152,331.299,511.061,326.316,506.701,324.532z"
   id="path2"
/>
			<path
   d="M312.501,178.199l187.733,76.8c1.058,0.427,2.15,0.64,3.234,0.64c3.354,0,6.545-2.005,7.902-5.308     c1.783-4.361-0.307-9.344-4.668-11.136l-187.733-76.8c-4.326-1.758-9.353,0.307-11.136,4.676     C306.05,171.432,308.14,176.416,312.501,178.199z"
   id="path3"
 />
			<path
   d="M506.701,409.866l-187.733-76.8c-4.326-1.766-9.353,0.299-11.136,4.668c-1.784,4.361,0.307,9.344,4.668,11.136     l187.733,76.8c1.058,0.427,2.15,0.631,3.234,0.631c3.362,0,6.554-2.005,7.902-5.308     C513.152,416.633,511.061,411.649,506.701,409.866z"
   id="path4"
  />
		</g>
	</g>
</g>
</svg>
