<?xml version="1.0" encoding="UTF-8" standalone="no"?>
<!-- Uploaded to: SVG Repo, www.svgrepo.com, Generator: SVG Repo Mixer Tools -->

<svg
   fill="#000000"
   height="800px"
   width="800px"
   version="1.1"
   id="Layer_1"
   viewBox="0 0 504.657 504.657"
   xml:space="preserve"
   sodipodi:docname="car-lights.svg"
   inkscape:version="1.3.2 (091e20e, 2023-11-25, custom)"
   xmlns:inkscape="http://www.inkscape.org/namespaces/inkscape"
   xmlns:sodipodi="http://sodipodi.sourceforge.net/DTD/sodipodi-0.dtd"
   xmlns="http://www.w3.org/2000/svg"
   xmlns:svg="http://www.w3.org/2000/svg"><defs
   id="defs7" /><sodipodi:namedview
   id="namedview7"
   pagecolor="#ffffff"
   bordercolor="#000000"
   borderopacity="0.25"
   inkscape:showpageshadow="2"
   inkscape:pageopacity="0.0"
   inkscape:pagecheckerboard="0"
   inkscape:deskcolor="#d1d1d1"
   inkscape:zoom="1.02625"
   inkscape:cx="400.48721"
   inkscape:cy="400"
   inkscape:window-width="1920"
   inkscape:window-height="1017"
   inkscape:window-x="-8"
   inkscape:window-y="-8"
   inkscape:window-maximized="1"
   inkscape:current-layer="Layer_1" />
<g
   id="g7"
>
	<g
   id="g6"
 >
		<g
   id="g5"
>
			<path
   d="M252.878,76.041c-82.315,0.059-159.82,27.824-207.201,75.063C15.796,180.9,0,215.959,0,252.488     c0,96.709,113.437,175.725,252.861,176.128h0.017c3.693,0,7.16-3.072,8.234-6.606c33.951-111.322,33.868-228.914-0.235-340.035     C259.802,78.458,256.554,76.049,252.878,76.041z"
   id="path1"
 />
			<path
   d="M496.263,201.602H311.607c-4.633,0-8.393,3.76-8.393,8.393s3.76,8.393,8.393,8.393h184.656     c4.633,0,8.393-3.76,8.393-8.393S500.896,201.602,496.263,201.602z"
   id="path2"
/>
			<path
   d="M496.263,285.537H311.607c-4.633,0-8.393,3.76-8.393,8.393s3.76,8.393,8.393,8.393h184.656     c4.633,0,8.393-3.76,8.393-8.393S500.896,285.537,496.263,285.537z"
   id="path3"
 />
			<path
   d="M496.263,369.471H311.607c-4.633,0-8.393,3.76-8.393,8.393c0,4.633,3.76,8.393,8.393,8.393h184.656     c4.633,0,8.393-3.76,8.393-8.393C504.657,373.232,500.896,369.471,496.263,369.471z"
   id="path4"
 />
			<path
   d="M311.607,134.455h184.656c4.633,0,8.393-3.76,8.393-8.393s-3.76-8.393-8.393-8.393H311.607     c-4.633,0-8.393,3.76-8.393,8.393S306.974,134.455,311.607,134.455z"
   id="path5"
 />
		</g>
	</g>
</g>
</svg>
