<?xml version="1.0" encoding="UTF-8" standalone="no"?>
<!-- Generator: Adobe Illustrator 20.0.0, SVG Export Plug-In . SVG Version: 6.00 Build 0)  -->

<svg
   version="1.1"
   id="Ebene_1"
   x="0px"
   y="0px"
   viewBox="0 0 32 32"
   xml:space="preserve"
   width="32"
   height="32"
   class="br-symbol-library"
   xmlns="http://www.w3.org/2000/svg"
   xmlns:svg="http://www.w3.org/2000/svg"><defs
   id="defs1" />
<g
   id="Engine"
   transform="matrix(0.5,0,0,0.5,2.6894031,2)"
 >
	<path
   d="m 41.150186,23.788726 v 7 c 0,0.1 0,0.3 0,0.4 l -1.5,3.5 c -0.2,0.4 -0.5,0.6 -0.9,0.6 h -2.6 c -0.6,0 -0.9,-0.4 -0.9,-0.9 v -1.6 h -1 v 2.7 c 0,0.6 -0.4,1 -1,1 h -10.7 c -0.2,0 -0.5,0 -0.7,-0.2 l -4.1,-3.3 h -4 c -0.6,0 -1.1,-0.6 -1.1,-1.2 v -5.6 h -1.5 v 5.6 c 0,0.6 -0.4,1 -1,1 -0.6000003,0 -1.0000003,-0.5 -1.0000003,-1 v -13.2 c 0,-0.6 0.4,-1 1.0000003,-1 0.6,0 1,0.5 1,1 v 5.7 h 1.5 v -5.7 c 0,-0.6 0.5,-1.1 1.1,-1.1 h 2.2 v -0.8 c -0.1,-0.6 0.5,-1.2 1.1,-1.2 h 5.1 v -1 h -5.1 c -0.6,0 -1,-0.4 -1,-1 0,-0.6 0.5,-1 1,-1 h 12.3 c 0.6,0 1,0.4 1,1 0,0.6 -0.5,1 -1,1 h -5.2 v 1 h 5.2 c 0.6,0 1,0.6 1,1.2 v 2.8 h 2.8 c 0.6,0 1,0.5 1,1 v 1.5 h 1 v -1.7 c 0,-0.6 0.4,-1 0.9,-1 h 2.6 c 0.4,0 0.8,0.2 1,0.6 l 1.5,3.5 c 0,0.1 0,0.2 0,0.4 z"
   id="path1"
  />
</g>

<g
   id="Temperature"
   transform="matrix(0.25,0,0,0.25,21.016066,15.039942)"
 >
	<path
   d="M 21.3,18 V 4 c 0,-2.2 -1.8,-4 -4,-4 H 14.6 C 12.4,0 10.7,1.8 10.7,4 V 18 C 9,19.5 8,21.6 8,24 c 0,4.4 3.6,8 8,8 4.4,0 8,-3.6 8,-8 0,-2.4 -1,-4.5 -2.7,-6 z M 16,29.6 c -3.1,0 -5.6,-2.5 -5.6,-5.6 0,-2.1 1.1,-3.9 2.9,-4.9 V 4 c 0,-0.7 0.6,-1.2 1.4,-1.2 h 2.7 c 0.7,0 1.5,0.5 1.5,1.2 V 5.3 H 16 v 1.5 h 2.8 V 8 H 16 v 1.3 h 2.8 v 1.5 H 16 V 12 h 2.8 v 7.1 c 1.8,1 2.8,2.8 2.8,4.9 0,3.1 -2.6,5.6 -5.6,5.6 z M 19.8,24 c 0,2.1 -1.7,3.8 -3.8,3.8 -2.1,0 -3.8,-1.7 -3.8,-3.8 0,-1.6 1.1,-3 2.6,-3.6 V 14 c 0,-0.4 0.2,-0.7 0.5,-0.7 h 1.3 c 0.4,0 0.6,0.4 0.6,0.7 v 6.4 c 1.6,0.6 2.6,1.9 2.6,3.6 z"
   id="path1-7"
 />
</g></svg>
