<?xml version="1.0" encoding="UTF-8" standalone="no"?>
<!-- Uploaded to: SVG Repo, www.svgrepo.com, Generator: SVG Repo Mixer Tools -->

<svg
   width="800"
   height="800"
   viewBox="0 0 512 512"
   version="1.1"
   id="svg1"
   xmlns="http://www.w3.org/2000/svg"
   xmlns:svg="http://www.w3.org/2000/svg">
  <defs
     id="defs1" />
  <path
     d="m 307.723,39.623 c -25.627,-0.292 -48.63,17.365 -54.246,43.44 -6.418,29.8 12.39,58.93 42.19,65.347 29.798,6.417 58.927,-12.39 65.345,-42.19 6.417,-29.798 -12.39,-58.928 -42.188,-65.345 -3.725,-0.802 -7.44,-1.21 -11.1,-1.252 z M 270.18,157.503 237.123,311 h 47.055 l 30.97,-143.81 c -7.584,0.836 -15.418,0.507 -23.27,-1.184 -7.854,-1.69 -15.13,-4.617 -21.698,-8.502 z M 198.486,329 l -10,30 h 135.028 l -10,-30 z M 73,377 v 30 h 30 v -30 z m 93.486,0 -10,30 h 199.028 l -10,-30 z M 409,377 v 30 h 30 V 377 Z M 57,425 v 62 h 398 v -62 z"
     id="path1" />
</svg>
