<?xml version="1.0" encoding="UTF-8" standalone="no"?>
<!-- Uploaded to: SVG Repo, www.svgrepo.com, Generator: SVG Repo Mixer Tools -->

<svg
   fill="#000000"
   height="800px"
   width="800px"
   version="1.1"
   id="Layer_1"
   viewBox="0 0 512.018 512.018"
   xml:space="preserve"
   sodipodi:docname="oil.svg"
   inkscape:version="1.3.2 (091e20e, 2023-11-25, custom)"
   xmlns:inkscape="http://www.inkscape.org/namespaces/inkscape"
   xmlns:sodipodi="http://sodipodi.sourceforge.net/DTD/sodipodi-0.dtd"
   xmlns="http://www.w3.org/2000/svg"
   xmlns:svg="http://www.w3.org/2000/svg"><defs
   id="defs4" /><sodipodi:namedview
   id="namedview4"
   pagecolor="#ffffff"
   bordercolor="#000000"
   borderopacity="0.25"
   inkscape:showpageshadow="2"
   inkscape:pageopacity="0.0"
   inkscape:pagecheckerboard="0"
   inkscape:deskcolor="#d1d1d1"
   inkscape:zoom="0.98375"
   inkscape:cx="399.49174"
   inkscape:cy="400"
   inkscape:window-width="1920"
   inkscape:window-height="1001"
   inkscape:window-x="-9"
   inkscape:window-y="-9"
   inkscape:window-maximized="1"
   inkscape:current-layer="Layer_1" />
<g
   transform="translate(-1 -1)"
   id="g4"
   style="fill:#d40000">
	<g
   id="g3"
   style="fill:#d40000">
		<g
   id="g2"
   style="fill:#d40000">
			<path
   d="M491.679,214.348c5.461,0,10.923-2.091,15.083-6.251c8.341-8.341,8.341-21.824,0-30.165l-21.333-21.333     c-7.509-7.531-19.413-8.341-27.883-1.984l-19.563,14.656l-127.531,59.221l-19.371-44.053     c-3.392-7.765-11.072-12.757-19.52-12.757H86.346c-6.101,0-11.541,2.624-15.424,6.741l-36.736-24.491     c-9.856-6.549-23.083-3.904-29.589,5.909c-6.549,9.813-3.904,23.061,5.909,29.589l54.507,36.331v116.587     c0,11.776,9.536,21.333,21.333,21.333h262.571c7.232,0,13.973-3.669,17.899-9.749l98.048-151.488l3.477-2.603l8.256,8.256     C480.756,212.258,486.218,214.348,491.679,214.348z"
   id="path1"
   style="fill:#d40000" />
			<path
   d="M491.679,235.682c-11.797,0-21.333,9.557-21.333,21.333v21.333c0,11.776,9.536,21.333,21.333,21.333     s21.333-9.557,21.333-21.333v-21.333C513.012,245.239,503.476,235.682,491.679,235.682z"
   id="path2"
   style="fill:#d40000" />
		</g>
	</g>
</g>
</svg>
