<?xml version="1.0" encoding="UTF-8" standalone="no"?>
<!-- Uploaded to: SVG Repo, www.svgrepo.com, Generator: SVG Repo Mixer Tools -->

<svg
   fill="#000000"
   height="800"
   width="800"
   version="1.1"
   id="Layer_1"
   viewBox="0 0 512.018 512.018"
   xml:space="preserve"
   sodipodi:docname="oil.svg"
   inkscape:version="1.3.2 (091e20e, 2023-11-25, custom)"
   xmlns:inkscape="http://www.inkscape.org/namespaces/inkscape"
   xmlns:sodipodi="http://sodipodi.sourceforge.net/DTD/sodipodi-0.dtd"
   xmlns="http://www.w3.org/2000/svg"
   xmlns:svg="http://www.w3.org/2000/svg"><sodipodi:namedview
   id="namedview1"
   pagecolor="#ffffff"
   bordercolor="#000000"
   borderopacity="0.25"
   inkscape:showpageshadow="2"
   inkscape:pageopacity="0.0"
   inkscape:pagecheckerboard="0"
   inkscape:deskcolor="#d1d1d1"
   inkscape:zoom="1.02625"
   inkscape:cx="400"
   inkscape:cy="400"
   inkscape:window-width="1920"
   inkscape:window-height="1017"
   inkscape:window-x="-8"
   inkscape:window-y="-8"
   inkscape:window-maximized="1"
   inkscape:current-layer="Layer_1" /><defs
   id="defs4" />
<path
   d="m 491.679,214.348 c 5.461,0 10.923,-2.091 15.083,-6.251 8.341,-8.341 8.341,-21.824 0,-30.165 l -21.333,-21.333 c -7.509,-7.531 -19.413,-8.341 -27.883,-1.984 l -19.563,14.656 -127.531,59.221 -19.371,-44.053 c -3.392,-7.765 -11.072,-12.757 -19.52,-12.757 H 86.346 c -6.101,0 -11.541,2.624 -15.424,6.741 L 34.186,153.932 c -9.856,-6.549 -23.083,-3.904 -29.589,5.909 -6.549,9.813 -3.904,23.061 5.909,29.589 l 54.507,36.331 v 116.587 c 0,11.776 9.536,21.333 21.333,21.333 h 262.571 c 7.232,0 13.973,-3.669 17.899,-9.749 l 98.048,-151.488 3.477,-2.603 8.256,8.256 c 4.159,4.161 9.621,6.251 15.082,6.251 z"
   id="path1"
   style="stroke:none;stroke-width:6.40095;stroke-opacity:1" />
			<path
   d="m 491.679,235.682 c -11.797,0 -21.333,9.557 -21.333,21.333 v 21.333 c 0,11.776 9.536,21.333 21.333,21.333 11.797,0 21.333,-9.557 21.333,-21.333 v -21.333 c 0,-11.776 -9.536,-21.333 -21.333,-21.333 z"
   id="path2"
   style="stroke:none;stroke-width:6.40095;stroke-opacity:1" />
		</svg>
