<?xml version="1.0" encoding="UTF-8" standalone="no"?>
<!-- Uploaded to: SVG Repo, www.svgrepo.com, Generator: SVG Repo Mixer Tools -->

<svg
   fill="#000000"
   height="800"
   width="800"
   version="1.1"
   id="Layer_1"
   viewBox="0 0 512.076 512.076"
   xml:space="preserve"
   sodipodi:docname="petrol.svg"
   inkscape:version="1.3.2 (091e20e, 2023-11-25, custom)"
   xmlns:inkscape="http://www.inkscape.org/namespaces/inkscape"
   xmlns:sodipodi="http://sodipodi.sourceforge.net/DTD/sodipodi-0.dtd"
   xmlns="http://www.w3.org/2000/svg"
   xmlns:svg="http://www.w3.org/2000/svg"><sodipodi:namedview
   id="namedview1"
   pagecolor="#ffffff"
   bordercolor="#000000"
   borderopacity="0.25"
   inkscape:showpageshadow="2"
   inkscape:pageopacity="0.0"
   inkscape:pagecheckerboard="0"
   inkscape:deskcolor="#d1d1d1"
   inkscape:zoom="1.02625"
   inkscape:cx="400"
   inkscape:cy="400"
   inkscape:window-width="1920"
   inkscape:window-height="1017"
   inkscape:window-x="-8"
   inkscape:window-y="-8"
   inkscape:window-maximized="1"
   inkscape:current-layer="g2" /><defs
   id="defs2" />
<g
   id="g2">
	<g
   id="g1"
   style="stroke:none">
		<path
   d="m 362.938,0.076 c -7.7,-0.7 -13.8,3.5 -17.8,9.3 -4,5.9 -4.8,13.3 -2.2,19.9 l 42.7,106.7 c 3.3,8.1 11.1,13.4 19.8,13.4 h 21.3 v 192 c 0,23.5 -19.1,42.7 -42.7,42.7 -23.5,0 -42.7,-19.1 -42.7,-42.7 v -149.3 c 0,-39.6 -27.3,-72.8 -64,-82.3 v -88.4 c 0.1,-11.7 -9.4,-21.3 -21.2,-21.3 h -213.3 c -11.8,0 -21.4,9.6 -21.4,21.3 v 384 c -11.7,0 -21.3,9.6 -21.3,21.4 v 64 c 0,11.7 9.6,21.3 21.3,21.3 h 256 c 11.8,0 21.3,-9.6 21.3,-21.3 v -64 c 0,-11.8 -9.6,-21.3 -21.3,-21.3 v -250.1 c 12.7,7.4 21.3,21 21.3,36.7 v 149.3 c 0,47.1 38.3,85.3 85.3,85.3 47,0 85.3,-38.3 85.3,-85.3 v -192 h 21.3 c 11.8,0 21.3,-9.6 21.3,-21.3 0.2,-44 -31,-127.4 -149,-128 z m -256.2,64 h 85.4 c 11.8,0 21.3,9.6 21.3,21.3 v 85.3 c 0,11.8 -9.6,21.3 -21.3,21.3 h -85.3 c -11.8,0 -21.3,-9.6 -21.3,-21.3 v -85.3 h -0.1 c 0,-11.8 9.6,-21.3 21.3,-21.3 z m 85.4,192 c 0,11.8 -9.6,21.3 -21.3,21.3 h -42.7 c -11.8,0 -21.3,-9.6 -21.3,-21.3 0,-11.7 9.6,-21.3 21.3,-21.3 h 42.7 c 11.7,0 21.3,9.5 21.3,21.3 z m 64,213.3 h -213.3 v -21.3 h 213.3 z"
   id="path1"
   style="fill-opacity:1;stroke:none;stroke-width:6.40095;stroke-dasharray:none;stroke-opacity:1" />
	</g>
</g>
</svg>
