<?xml version="1.0" encoding="UTF-8" standalone="no"?>
<!-- Uploaded to: SVG Repo, www.svgrepo.com, Generator: SVG Repo Mixer Tools -->

<svg
   fill="#000000"
   height="800px"
   width="800px"
   version="1.1"
   id="Layer_1"
   viewBox="0 0 512.076 512.076"
   xml:space="preserve"
   sodipodi:docname="petrolWhite.svg"
   inkscape:version="1.3.2 (091e20e, 2023-11-25, custom)"
   xmlns:inkscape="http://www.inkscape.org/namespaces/inkscape"
   xmlns:sodipodi="http://sodipodi.sourceforge.net/DTD/sodipodi-0.dtd"
   xmlns="http://www.w3.org/2000/svg"
   xmlns:svg="http://www.w3.org/2000/svg"><defs
   id="defs2" /><sodipodi:namedview
   id="namedview2"
   pagecolor="#ffffff"
   bordercolor="#000000"
   borderopacity="0.25"
   inkscape:showpageshadow="2"
   inkscape:pageopacity="0.0"
   inkscape:pagecheckerboard="0"
   inkscape:deskcolor="#d1d1d1"
   inkscape:zoom="0.491875"
   inkscape:cx="-14.231258"
   inkscape:cy="499.11055"
   inkscape:window-width="1920"
   inkscape:window-height="1001"
   inkscape:window-x="-9"
   inkscape:window-y="-9"
   inkscape:window-maximized="1"
   inkscape:current-layer="Layer_1" />
<g
   id="g2"
   style="fill:#ffffff">
	<g
   id="g1"
   style="fill:#ffffff">
		<path
   d="M362.938,0.076c-7.7-0.7-13.8,3.5-17.8,9.3c-4,5.9-4.8,13.3-2.2,19.9l42.7,106.7c3.3,8.1,11.1,13.4,19.8,13.4h21.3v192    c0,23.5-19.1,42.7-42.7,42.7c-23.5,0-42.7-19.1-42.7-42.7v-149.3c0-39.6-27.3-72.8-64-82.3v-88.4c0.1-11.7-9.4-21.3-21.2-21.3    h-213.3c-11.8,0-21.4,9.6-21.4,21.3v384c-11.7,0-21.3,9.6-21.3,21.4v64c0,11.7,9.6,21.3,21.3,21.3h256c11.8,0,21.3-9.6,21.3-21.3    v-64c0-11.8-9.6-21.3-21.3-21.3v-250.1c12.7,7.4,21.3,21,21.3,36.7v149.3c0,47.1,38.3,85.3,85.3,85.3s85.3-38.3,85.3-85.3v-192    h21.3c11.8,0,21.3-9.6,21.3-21.3C512.138,84.076,480.938,0.676,362.938,0.076z M106.738,64.076h85.4c11.8,0,21.3,9.6,21.3,21.3    v85.3c0,11.8-9.6,21.3-21.3,21.3h-85.3c-11.8,0-21.3-9.6-21.3-21.3v-85.3h-0.1C85.438,73.576,95.038,64.076,106.738,64.076z     M192.138,256.076c0,11.8-9.6,21.3-21.3,21.3h-42.7c-11.8,0-21.3-9.6-21.3-21.3c0-11.7,9.6-21.3,21.3-21.3h42.7    C182.538,234.776,192.138,244.276,192.138,256.076z M256.138,469.376h-213.3v-21.3h213.3V469.376z"
   id="path1"
   style="fill:#ffffff" />
	</g>
</g>
</svg>
