<?xml version="1.0" encoding="UTF-8" standalone="no"?>
<!-- Uploaded to: SVG Repo, www.svgrepo.com, Generator: SVG Repo Mixer Tools -->

<svg
   fill="#000000"
   height="800px"
   width="800px"
   version="1.1"
   id="Layer_1"
   viewBox="0 0 512.002 512.002"
   xml:space="preserve"
   sodipodi:docname="saw.svg"
   inkscape:version="1.3.2 (091e20e, 2023-11-25, custom)"
   xmlns:inkscape="http://www.inkscape.org/namespaces/inkscape"
   xmlns:sodipodi="http://sodipodi.sourceforge.net/DTD/sodipodi-0.dtd"
   xmlns="http://www.w3.org/2000/svg"
   xmlns:svg="http://www.w3.org/2000/svg"><defs
   id="defs4" /><sodipodi:namedview
   id="namedview4"
   pagecolor="#ffffff"
   bordercolor="#000000"
   borderopacity="0.25"
   inkscape:showpageshadow="2"
   inkscape:pageopacity="0.0"
   inkscape:pagecheckerboard="0"
   inkscape:deskcolor="#d1d1d1"
   inkscape:zoom="1.02625"
   inkscape:cx="400.48721"
   inkscape:cy="400"
   inkscape:window-width="1920"
   inkscape:window-height="1017"
   inkscape:window-x="-8"
   inkscape:window-y="-8"
   inkscape:window-maximized="1"
   inkscape:current-layer="Layer_1" />
<g
   id="g2"
>
	<g
   id="g1"
 >
		<path
   d="M256.001,112.759c-78.984,0-143.241,64.258-143.241,143.241s64.258,143.241,143.241,143.241    s143.241-64.258,143.241-143.241S334.984,112.759,256.001,112.759z M256.001,291.156c-19.416,0-35.155-15.739-35.155-35.155    s15.739-35.155,35.155-35.155c19.416,0,35.155,15.739,35.155,35.155S275.416,291.156,256.001,291.156z"
   id="path1"
  />
	</g>
</g>
<g
   id="g4"
>
	<g
   id="g3"
>
		<path
   d="M509.147,191.274c-1.772-1.074-3.975-1.144-5.811-0.187l-33.21,17.321c-2.377,1.24-5.291,0.728-7.104-1.247    c-1.813-1.975-2.073-4.922-0.634-7.185l27.882-43.843c1.185-1.862,1.235-4.23,0.131-6.142l-42.528-73.66    c-1.036-1.794-2.933-2.916-5.004-2.961c-2.071-0.045-4.015,0.996-5.126,2.743l-20.1,31.607c-1.438,2.263-4.219,3.276-6.776,2.473    c-2.558-0.804-4.257-3.227-4.142-5.905l2.225-51.91c0.094-2.206-1.046-4.28-2.956-5.384L332.334,4.468    c-1.794-1.036-3.998-1.059-5.814-0.062c-1.815,0.997-2.979,2.87-3.068,4.939l-1.604,37.422c-0.114,2.679-2.014,4.947-4.632,5.529    s-5.299-0.665-6.54-3.043L286.648,3.184C285.627,1.227,283.603,0,281.395,0H196.34c-2.071,0-3.992,1.082-5.066,2.853    c-1.074,1.772-1.144,3.975-0.187,5.811l17.321,33.211c1.24,2.378,0.728,5.291-1.247,7.104c-1.975,1.813-4.922,2.073-7.185,0.634    l-43.843-27.882c-1.862-1.185-4.23-1.235-6.142-0.131L76.333,64.128c-1.794,1.036-2.916,2.933-2.961,5.004    c-0.045,2.071,0.996,4.014,2.744,5.126l31.607,20.101c2.263,1.438,3.276,4.219,2.473,6.776c-0.804,2.558-3.227,4.257-5.905,4.142    l-51.91-2.225c-2.206-0.094-4.28,1.045-5.384,2.956L4.468,179.667c-1.036,1.794-1.059,3.999-0.063,5.814    c0.997,1.815,2.87,2.979,4.939,3.068l37.422,1.604c2.679,0.114,4.947,2.015,5.529,4.633c0.582,2.618-0.665,5.299-3.043,6.54    L3.185,225.352c-1.957,1.021-3.184,3.045-3.184,5.253v85.055c0,2.071,1.082,3.992,2.853,5.066    c1.772,1.074,3.975,1.144,5.811,0.187l33.21-17.321c2.378-1.24,5.291-0.728,7.104,1.247c1.813,1.976,2.073,4.922,0.634,7.185    l-27.881,43.843c-1.185,1.862-1.235,4.23-0.131,6.142l42.528,73.66c1.036,1.794,2.933,2.916,5.004,2.961    c2.071,0.045,4.014-0.996,5.126-2.743l20.101-31.607c1.438-2.263,4.219-3.276,6.776-2.473c2.558,0.804,4.257,3.227,4.142,5.905    l-2.225,51.91c-0.094,2.206,1.045,4.28,2.956,5.384l73.66,42.528c1.794,1.036,3.998,1.059,5.814,0.063    c1.817-0.996,2.979-2.87,3.068-4.939l1.604-37.422c0.114-2.679,2.015-4.947,4.633-5.529s5.299,0.665,6.54,3.043l24.027,46.068    c1.021,1.957,3.045,3.184,5.253,3.184h85.055c2.071,0,3.992-1.082,5.066-2.853c1.074-1.772,1.144-3.974,0.187-5.811l-17.321-33.21    c-1.24-2.377-0.728-5.291,1.247-7.104c1.976-1.813,4.922-2.073,7.185-0.634l43.842,27.881c1.862,1.185,4.23,1.235,6.142,0.131    l73.66-42.528c1.794-1.036,2.916-2.933,2.961-5.004c0.045-2.071-0.996-4.015-2.744-5.126l-31.607-20.101    c-2.263-1.438-3.276-4.219-2.473-6.776c0.803-2.557,3.226-4.257,5.905-4.142l51.91,2.225c2.206,0.094,4.28-1.045,5.384-2.956    l42.528-73.66c1.036-1.794,1.059-3.999,0.062-5.814c-0.996-1.815-2.87-2.979-4.939-3.068l-37.422-1.604    c-2.679-0.114-4.947-2.015-5.529-4.633s0.665-5.299,3.043-6.54l46.068-24.027c1.957-1.021,3.184-3.045,3.184-5.253V196.34    C512.001,194.269,510.919,192.348,509.147,191.274z M256.001,432.901c-97.544,0-176.901-79.357-176.901-176.901    s79.357-176.9,176.901-176.9s176.901,79.357,176.901,176.901S353.544,432.901,256.001,432.901z"
   id="path2"
 />
	</g>
</g>
</svg>
