<?xml version="1.0" encoding="UTF-8" standalone="no"?>
<!-- Uploaded to: SVG Repo, www.svgrepo.com, Generator: SVG Repo Mixer Tools -->

<svg
   fill="#000000"
   height="800px"
   width="800px"
   version="1.1"
   id="Layer_1"
   viewBox="0 0 512 512"
   xml:space="preserve"
   sodipodi:docname="temperature.svg"
   inkscape:version="1.3.2 (091e20e, 2023-11-25, custom)"
   xmlns:inkscape="http://www.inkscape.org/namespaces/inkscape"
   xmlns:sodipodi="http://sodipodi.sourceforge.net/DTD/sodipodi-0.dtd"
   xmlns="http://www.w3.org/2000/svg"
   xmlns:svg="http://www.w3.org/2000/svg"><defs
   id="defs6" /><sodipodi:namedview
   id="namedview6"
   pagecolor="#ffffff"
   bordercolor="#000000"
   borderopacity="0.25"
   inkscape:showpageshadow="2"
   inkscape:pageopacity="0.0"
   inkscape:pagecheckerboard="0"
   inkscape:deskcolor="#d1d1d1"
   inkscape:zoom="0.98375"
   inkscape:cx="399.49174"
   inkscape:cy="400"
   inkscape:window-width="1920"
   inkscape:window-height="1001"
   inkscape:window-x="-9"
   inkscape:window-y="-9"
   inkscape:window-maximized="1"
   inkscape:current-layer="Layer_1" />
<g
   id="g6"
   style="fill:#d40000">
	<g
   id="g5"
   style="fill:#d40000">
		<g
   id="g4"
   style="fill:#d40000">
			<path
   d="M490.667,458.664c-18.816,0-21.333-4.288-21.333-21.333c0-11.776-9.557-21.333-21.333-21.333     s-21.333,9.557-21.333,21.333c0,8.704-16.619,21.333-42.667,21.333c-26.048,0-42.667-12.629-42.667-21.333     c0-11.776-9.557-21.333-21.333-21.333s-21.333,9.557-21.333,21.333c0,8.704-16.619,21.333-42.667,21.333     s-42.667-12.629-42.667-21.333c0-11.776-9.557-21.333-21.333-21.333s-21.333,9.557-21.333,21.333     c0,8.704-16.619,21.333-42.667,21.333c-26.048,0-42.667-12.629-42.667-21.333c0-11.776-9.557-21.333-21.333-21.333     s-21.333,9.557-21.333,21.333c0,17.045-2.517,21.333-21.333,21.333C9.557,458.664,0,468.221,0,479.997     s9.557,21.333,21.333,21.333c14.229,0,34.219-2.944,48.043-17.088C84.565,494.888,105.088,501.33,128,501.33     c25.749,0,48.469-8.128,64-21.248c15.531,13.12,38.251,21.248,64,21.248s48.469-8.128,64-21.248     c15.531,13.12,38.251,21.248,64,21.248c22.912,0,43.435-6.443,58.624-17.088c13.824,14.144,33.813,17.088,48.043,17.088     c11.776,0,21.333-9.557,21.333-21.333S502.443,458.664,490.667,458.664z"
   id="path1"
   style="fill:#d40000" />
			<path
   d="M405.333,330.664c0,17.045-2.517,21.333-21.333,21.333c-11.776,0-21.333,9.557-21.333,21.333s9.557,21.333,21.333,21.333     c14.229,0,34.219-2.944,48.043-17.088c15.189,10.645,35.712,17.088,58.624,17.088c11.776,0,21.333-9.557,21.333-21.333     s-9.557-21.333-21.333-21.333c-26.048,0-42.667-12.629-42.667-21.333c0-11.776-9.557-21.333-21.333-21.333     S405.333,318.888,405.333,330.664z"
   id="path2"
   style="fill:#d40000" />
			<path
   d="M21.333,394.664c22.912,0,43.435-6.443,58.624-17.088c13.824,14.144,33.813,17.088,48.043,17.088     c11.776,0,21.333-9.557,21.333-21.333s-9.557-21.333-21.333-21.333c-18.816,0-21.333-4.288-21.333-21.333     c0-11.776-9.557-21.333-21.333-21.333S64,318.888,64,330.664c0,8.704-16.619,21.333-42.667,21.333     C9.557,351.997,0,361.554,0,373.33S9.557,394.664,21.333,394.664z"
   id="path3"
   style="fill:#d40000" />
			<path
   d="M240.853,414.685c5.013,0.875,10.027,1.301,14.997,1.301c20.096,0,39.573-6.976,55.061-19.989     c19.328-16.277,30.421-40.085,30.421-65.323c0-15.083-4.096-29.781-11.627-42.667h43.627c29.397,0,53.333-23.936,53.333-53.333     c0-29.419-23.936-53.333-53.333-53.333H320v-21.333h53.333c29.397,0,53.333-23.936,53.333-53.333     c0-29.419-23.936-53.333-53.333-53.333h-57.664c-7.936-21.696-26.453-38.144-49.067-41.813     c-18.752-3.072-37.739,2.197-52.053,14.379C200.213,38.087,192,55.858,192,74.674v199.872     c-17.088,19.392-24.533,45.312-20.032,71.147C178.027,380.317,206.336,408.669,240.853,414.685z"
   id="path4"
   style="fill:#d40000" />
		</g>
	</g>
</g>
</svg>
