<?xml version="1.0" encoding="UTF-8" standalone="no"?>
<svg
   id="Layer_1"
   data-name="Layer 1"
   viewBox="0 0 512 512"
   version="1.1"
   sodipodi:docname="f974e30f-891f-4677-ae5c-5b99a4a74200.svg"
   inkscape:version="1.3.2 (091e20e, 2023-11-25, custom)"
   xmlns:inkscape="http://www.inkscape.org/namespaces/inkscape"
   xmlns:sodipodi="http://sodipodi.sourceforge.net/DTD/sodipodi-0.dtd"
   xmlns="http://www.w3.org/2000/svg"
   xmlns:svg="http://www.w3.org/2000/svg">
  <defs
     id="defs1" />
  <sodipodi:namedview
     id="namedview1"
     pagecolor="#ffffff"
     bordercolor="#000000"
     borderopacity="0.25"
     inkscape:showpageshadow="2"
     inkscape:pageopacity="0.0"
     inkscape:pagecheckerboard="0"
     inkscape:deskcolor="#d1d1d1"
     inkscape:zoom="1.6035156"
     inkscape:cx="256"
     inkscape:cy="256"
     inkscape:window-width="1920"
     inkscape:window-height="1017"
     inkscape:window-x="-8"
     inkscape:window-y="-8"
     inkscape:window-maximized="1"
     inkscape:current-layer="Layer_1" />
  <title
     id="title1">volume-glyph</title>
  <path
     d="M234.67,106.67V405.33A21.33,21.33,0,0,1,200,422L99.18,341.33H64a64.07,64.07,0,0,1-64-64V234.67a64.07,64.07,0,0,1,64-64H99.18L200,90a21.33,21.33,0,0,1,34.66,16.66Zm54.11,90.68a21.33,21.33,0,0,0-1.19,30.15,42.23,42.23,0,0,1,0,57,21.33,21.33,0,1,0,31.33,29,84.89,84.89,0,0,0,0-114.94A21.34,21.34,0,0,0,288.78,197.34ZM379,137.87a21.33,21.33,0,0,0-30.78,29.54,127.61,127.61,0,0,1,0,177.19A21.33,21.33,0,1,0,379,374.14a170.26,170.26,0,0,0,0-236.27Zm60.36-60.6a21.34,21.34,0,0,0-30.55,29.79,213.59,213.59,0,0,1,0,297.9,21.34,21.34,0,0,0,30.55,29.79,256.28,256.28,0,0,0,0-357.48Z"
     id="path1"
     />
</svg>
