<?xml version="1.0" encoding="UTF-8" standalone="no"?>
<svg
   id="Layer_1"
   data-name="Layer 1"
   viewBox="0 0 512 512"
   version="1.1"
   sodipodi:docname="VolumeLow.svg"
   inkscape:version="1.3.2 (091e20e, 2023-11-25, custom)"
   xmlns:inkscape="http://www.inkscape.org/namespaces/inkscape"
   xmlns:sodipodi="http://sodipodi.sourceforge.net/DTD/sodipodi-0.dtd"
   xmlns="http://www.w3.org/2000/svg"
   xmlns:svg="http://www.w3.org/2000/svg"
   xmlns:rdf="http://www.w3.org/1999/02/22-rdf-syntax-ns#"
   xmlns:cc="http://creativecommons.org/ns#"
   xmlns:dc="http://purl.org/dc/elements/1.1/">
  <defs
     id="defs1">
    <clipPath
       clipPathUnits="userSpaceOnUse"
       id="clipPath2">
      <rect
         style="fill:none;stroke-width:64.6949"
         id="rect2"
         width="342.99634"
         height="411.59561"
         x="-0.62364006"
         y="47.395859" />
    </clipPath>
  </defs>
  <sodipodi:namedview
     id="namedview1"
     pagecolor="#ffffff"
     bordercolor="#000000"
     borderopacity="0.25"
     inkscape:showpageshadow="2"
     inkscape:pageopacity="0.0"
     inkscape:pagecheckerboard="0"
     inkscape:deskcolor="#d1d1d1"
     inkscape:zoom="1.6035156"
     inkscape:cx="256.31182"
     inkscape:cy="254.12911"
     inkscape:window-width="1920"
     inkscape:window-height="1017"
     inkscape:window-x="-8"
     inkscape:window-y="-8"
     inkscape:window-maximized="1"
     inkscape:current-layer="Layer_1" />
  <title
     id="title1">volume-glyph</title>
  <path
     d="M 234.67,106.67 V 405.33 A 21.33,21.33 0 0 1 200,422 L 99.18,341.33 H 64 a 64.07,64.07 0 0 1 -64,-64 v -42.66 a 64.07,64.07 0 0 1 64,-64 H 99.18 L 200,90 a 21.33,21.33 0 0 1 34.66,16.66 z m 54.11,90.68 a 21.33,21.33 0 0 0 -1.19,30.15 42.23,42.23 0 0 1 0,57 21.345778,21.345778 0 1 0 31.33,29 84.89,84.89 0 0 0 0,-114.94 21.34,21.34 0 0 0 -30.14,-1.22 z M 379,137.87 a 21.330846,21.330846 0 0 0 -30.78,29.54 127.61,127.61 0 0 1 0,177.19 21.330846,21.330846 0 1 0 30.78,29.54 170.26,170.26 0 0 0 0,-236.27 z m 60.36,-60.6 a 21.34,21.34 0 0 0 -30.55,29.79 213.59,213.59 0 0 1 0,297.9 21.34,21.34 0 0 0 30.55,29.79 256.28,256.28 0 0 0 0,-357.48 z"
     id="path1"
     clip-path="url(#clipPath2)"
     transform="translate(170.25092,-12.472594)" />
  <metadata
     id="metadata2">
    <rdf:RDF>
      <cc:Work
         rdf:about="">
        <dc:title>volume-glyph</dc:title>
      </cc:Work>
    </rdf:RDF>
  </metadata>
</svg>
